<svg xmlns="http://www.w3.org/2000/svg" viewBox="0 0 512 512">
  <rect width="512" height="512" rx="112" fill="#f6f1e7"/>
  <circle cx="410" cy="102" r="82" fill="#e8b94f" opacity=".24"/>
  <path d="M116 223c0-80 63-142 140-142s140 62 140 142v154c0 31-25 56-56 56H172c-31 0-56-25-56-56V223Z" fill="#4d5b49"/>
  <path d="M176 230a80 80 0 0 1 160 0" fill="none" stroke="#fffaf0" stroke-width="26" stroke-linecap="round"/>
  <path d="m256 229 54-65" fill="none" stroke="#e8b94f" stroke-width="24" stroke-linecap="round"/>
  <circle cx="256" cy="229" r="18" fill="#fffaf0"/>
  <path d="M190 321h132" fill="none" stroke="#fffaf0" stroke-opacity=".23" stroke-width="18" stroke-linecap="round"/>
  <circle cx="210" cy="369" r="13" fill="#e8b94f"/>
  <circle cx="256" cy="369" r="13" fill="#fffaf0"/>
  <circle cx="302" cy="369" r="13" fill="#d97b4a"/>
</svg>
